<svg xmlns="http://www.w3.org/2000/svg" version="1.1" xmlns:xlink="http://www.w3.org/1999/xlink" xmlns:svgjs="http://svgjs.dev/svgjs" width="1000" height="1125" viewBox="0 0 1000 1125"><g transform="matrix(1,0,0,1,1.7053025658242404e-13,0)"><svg viewBox="0 0 320 360" data-background-color="#ffffff" preserveAspectRatio="xMidYMid meet" height="1125" width="1000" xmlns="http://www.w3.org/2000/svg" xmlns:xlink="http://www.w3.org/1999/xlink"><g id="tight-bounds" transform="matrix(1,0,0,1,0,0)"><svg viewBox="0 0 320 360" height="360" width="320"><g><svg></svg></g><g><svg viewBox="0 0 320 360" height="360" width="320"><g><path xmlns="http://www.w3.org/2000/svg" d="M20.961 227.22l3.726 4.658-1.863-6.056c-0.466-2.795-3.726 0.466-1.863 1.398M25.153 224.425c1.397 2.329 2.795 4.658 2.795 6.987 0 3.261 2.795 4.658 5.123 5.589-3.261-3.726-5.124-13.974-7.918-12.576M204.017 26.929c7.918 0 15.371-0.932 23.756 0.931 20.495 5.124 37.729 15.371 49.374 29.811l32.606 52.169c1.397 13.042 4.192 27.482 3.726 43.319 3.261 0 2.795-4.658 6.521-5.59-3.726 9.316-5.59 20.961-6.521 34.469-2.329-7.453 0-18.632 0.466-24.687-3.261 5.124-5.124 1.397-5.124-0.932 0.466-3.726-1.397-3.261-2.795-4.658-5.124-4.658-8.384-9.782-12.11-17.7 2.329-6.055 2.795-14.905-4.658-19.563-2.329-1.397-5.124-3.726-6.521-7.453-1.863-5.124-5.124-11.179-4.193-19.097 0.466-2.329-6.987 5.124-11.179 1.863-18.166-12.576-36.332-27.016-58.224-39.127-11.645 0-20.029-4.192-24.221-9.316-3.726-4.658-0.932-10.713 4.658-11.179 3.261 0 6.987-0.932 9.782 0.932 0.466-1.863 2.329-4.192 4.657-4.192M157.904 16.215l0.932 0.466c4.658 0.932 6.987 7.453 12.11 5.124 0 3.261 0.466 6.521-0.466 8.85-1.397 3.726-5.59 3.726-8.85 3.726-31.208-1.863-49.374 11.179-68.471 22.358-5.124 3.261-10.713 5.59-14.906 9.782-20.029 18.632-41.921 35.866-47.045 70.335l-4.192 38.195c-0.466 4.192-5.124 8.384-4.192 13.508l3.26 22.824c-3.261-3.261-5.124 0.932-4.192 2.795 0.466 1.397 2.329 6.055 5.124 1.863 3.726 6.987 7.453 20.495 12.576 26.55 15.837 18.632 36.332 35.4 53.101 52.169 4.192-0.932 7.453-0.932 8.384-3.727 1.397 2.795-1.397 5.59-3.726 6.056 7.453 4.658 15.837 8.85 27.016 9.781 14.44 0.932 27.948 3.261 40.524 6.522 6.521-1.863 13.042-2.795 20.029-3.261 2.329 0 3.726-3.726 6.521-4.658l0.466-4.658c2.795 4.192 2.329-1.397 0.466-4.192 3.261 2.795 4.192 5.124 5.589 6.987 0-1.397 3.726-6.521 3.727-0.466l0.931-6.055c1.397-0.932 1.863 5.124 3.261 0.931 1.397-4.192 4.192-0.932 6.987-2.329-0.932 1.863-0.466 5.59 2.794 3.261l3.727-3.261c2.329 5.59 6.055 3.261 7.918 2.329 20.495-13.042 40.99-28.413 60.553-43.784l-0.466 6.055 2.329-7.453c2.329 2.329 4.192 0.466 5.124-0.931 2.795-4.658 6.521-9.316 12.577-13.508-7.453 20.029-16.303 35.866-27.482 48.908l-4.658 5.59c0 3.261-0.932 7.453-4.658 7.918-1.863 0.466-5.59-0.932-8.384 1.863-1.397 1.863 3.261 5.59-0.466 2.795-3.261-2.329-6.521 0-10.248 0.932-2.795 0.932 1.863 3.726 2.795 5.589 0.932 1.863 1.863 3.726 1.398 6.056l-5.124-5.59c-6.055 3.261-9.782 9.316-14.906 13.974-2.329 1.863-1.397 5.124-1.397 7.918-3.261 0-6.987-0.932-8.85 0.932-1.397 1.863-0.932 4.658-0.932 7.453-4.658-0.466-5.124-7.453-9.315-6.056-4.192 0.932-8.85 1.397-12.577 3.727 2.795 5.59-4.658 2.329-3.726 3.26-6.987-4.192-13.042-7.453-20.495-4.658-15.837-5.124-35.4-2.795-49.84-0.931 0-2.329 0.466-4.658-0.466-5.124-0.932 2.329-3.726 1.397-3.26 1.397-8.85-6.055-17.7-9.782-27.016-14.905-8.384 0.932-16.303-3.261-18.632-5.59-6.521-6.055-13.974-2.795-20.029-4.192-13.042-3.261-17.7-16.769-19.098-26.084-0.932-4.658-4.658-6.521-6.055-6.056-6.055-19.563-15.371-37.263-22.824-55.429-1.863-4.658-1.397-9.316-1.397-14.44 2.329 0.932 4.658 0.466 4.192-2.794-2.329-15.371-7.918-27.016-13.974-38.195 3.261-15.837 3.726-34.469 11.179-48.443 6.521-12.576 18.632-19.098 27.016-29.811 2.795-3.726 2.795-8.85 5.59-12.11 9.316-9.316 18.632-19.098 28.879-27.482 4.658-3.726 10.247 0 17.234-1.397 2.329-8.384 11.645-15.837 20.495-13.508 3.726 0.932 11.179-8.85 13.508-9.782 3.726-1.397 1.863 3.726 1.863 6.987 8.85-6.987 20.961-10.713 32.14-14.906" fill="#ff5858" fill-rule="nonzero" stroke="none" stroke-width="1" stroke-linecap="butt" stroke-linejoin="miter" stroke-miterlimit="10" stroke-dasharray="" stroke-dashoffset="0" font-family="none" font-weight="none" font-size="none" text-anchor="none" style="mix-blend-mode: normal" data-fill-palette-color="tertiary"></path></g><g transform="matrix(1,0,0,1,69.7711461009813,90)"><svg viewBox="0 0 180.4577077980374 180" height="180" width="180.4577077980374"><g><svg viewBox="0 0 180.4577077980374 180" height="180" width="180.4577077980374"><g><svg viewBox="0 0 192 191.5130166602718" height="180" width="180.4577077980374"><g transform="matrix(1,0,0,1,0,79.47515090452258)"><svg viewBox="0 0 192 112.03786575574922" height="112.03786575574922" width="192"><g id="textblocktransform"><svg viewBox="0 0 192 112.03786575574922" height="112.03786575574922" width="192" id="textblock"><g><svg viewBox="0 0 192 70.77070368597417" height="70.77070368597417" width="192"><g transform="matrix(1,0,0,1,0,0)"><svg width="192" viewBox="3.549999952316284 -36.54999923706055 104.44999694824219 38.5" height="70.77070368597417" data-palette-color="#ff5858"><path d="M22.55-18.3Q21.35-18.2 20.8-18.2L20.8-18.2Q17.1-17.95 15.1-17.65L15.1-17.65Q14-17.45 12.4-14.95L12.4-14.95Q11.05-12.85 10.55-8.3L10.55-8.3 10-6.5Q9.75-5.6 9.25-4.95L9.25-4.95Q8.95-4.6 8.47-4.38 8-4.15 7.5-4.15L7.5-4.15Q7.75-4.15 7.3-4.7L7.3-4.7Q6.3-6.05 5.83-6.88 5.35-7.7 5.35-8.75L5.35-8.75Q5.35-9.2 5.5-9.8L5.5-9.8Q5.75-10.55 5.8-11.3L5.8-11.3Q5.9-11.6 6-12.18 6.1-12.75 6.25-13.15L6.25-13.15Q6.4-13.6 6.4-14L6.4-14Q6.4-15.1 5.25-16.1L5.25-16.1Q3.55-17.55 3.55-18.75L3.55-18.75Q3.55-20.15 5.75-21.35L5.75-21.35Q5.95-21.45 6.33-21.7 6.7-21.95 7-22L7-22Q8.05-22.25 8.53-22.95 9-23.65 9.35-24.9L9.35-24.9Q10.3-28.2 11.45-32L11.45-32 12-33.8Q12.1-34.15 12.55-35.1L12.55-35.1Q14.75-35.15 15.68-33.9 16.6-32.65 16.6-30.65L16.6-30.65Q16.6-30.35 16.5-29.75L16.5-29.75 16.05-27.75 15.75-26.65 15.25-24 17.9-23.8 24.25-23.25 25.95-28.5 26.35-30.2Q27.8-32.1 28.9-31.1L28.9-31.1Q29.95-30.15 30.73-28.98 31.5-27.8 31.5-26.3L31.5-26.3Q31.5-24.85 30.65-22.6L30.65-22.6Q31.05-22.35 31.6-22.18 32.15-22 32.35-21.95L32.35-21.95Q33.9-21.5 34.75-20.9 35.6-20.3 35.8-18.75L35.8-18.75Q35.2-17.8 34.2-17.5 33.2-17.2 31.85-17.35L31.85-17.35Q31.35-17.4 30.55-17.4L30.55-17.4Q29.45-17.4 29.1-16.95 28.75-16.5 28.25-14.85L28.25-14.85 27.65-12.9Q26.45-9 25.93-6.65 25.4-4.3 25.2-1.75L25.2-1.75Q25.2-1.55 25.18-0.93 25.15-0.3 24.85 0.08 24.55 0.45 23.9 0.45L23.9 0.45Q22.25 0.6 21.9-1.3L21.9-1.3Q20.7-3.95 20.7-6.4L20.7-6.4Q20.7-7.45 20.8-8L20.8-8Q21.35-11.2 22.25-16.15L22.25-16.15 22.55-18.3ZM47.6-22.5Q47.7-22.4 47.8-22.35 47.9-22.3 48-22.25L48-22.25Q49.85-23.65 51.95-25.15L51.95-25.15 62.9-32.9Q63.45-33.3 64.55-33.3L64.55-33.3Q65.45-33.3 66.27-32.98 67.1-32.65 67.45-32.1L67.45-32.1Q67.75-31.65 67.75-31.2L67.75-31.2Q67.75-30.55 66.95-29.75L66.95-29.75 61.45-25.1 60.05-23.95Q57.65-22.05 56.5-21L56.5-21Q55.8-20.4 55.47-19.98 55.15-19.55 55.15-19.1L55.15-19.1Q55.15-18.5 56-17.1L56-17.1 56.9-15.7Q60.2-10.4 62.57-7 64.95-3.6 67.85-0.55L67.85-0.55 68.7 0.4Q67.85 1.1 67.2 1.1L67.2 1.1Q66.6 1.1 66.05 0.65L66.05 0.65Q62.6-1.9 59.9-4.58 57.2-7.25 55.25-10.45L55.25-10.45Q54.25-12.05 52.75-14.05L52.75-14.05Q52.65-14.25 51.45-15.95L51.45-15.95 50-14.75Q47.25-12.55 45.85-11.2L45.85-11.2Q45.4-10.8 45.15-10.08 44.9-9.35 44.85-8.65L44.85-8.65Q44.8-7.85 44.8-6.2L44.8-6.2 44.85-1.25Q44.85-0.1 44.62 0.68 44.4 1.45 43.6 1.95L43.6 1.95Q41.8 1.3 41.12 0.85 40.45 0.4 40.22-0.35 40-1.1 39.95-2.85L39.95-2.85 39.75-5.4Q39.5-7.5 39.5-9.05L39.5-9.05Q39.5-11.4 39.87-13.78 40.25-16.15 41-19.7L41-19.7Q42-24.75 43.3-29L43.3-29Q43.9-30.85 44.95-32.88 46-34.9 46.2-35.3L46.2-35.3Q46.55-35.95 46.92-36.25 47.3-36.55 47.8-36.55L47.8-36.55Q48.55-36.55 50.1-35.8L50.1-35.8Q50.85-35.45 51.12-35.15 51.4-34.85 51.4-34.4L51.4-34.4Q51.4-33.95 51.1-33.1L51.1-33.1 49.4-28.25Q49.05-27.15 48.25-24.95L48.25-24.95Q48.05-24.35 47.6-22.5L47.6-22.5ZM74.15-19.65Q73.3-20.7 73-21.88 72.7-23.05 72.7-24.55L72.7-24.55 72.7-25.55Q72.7-25.9 72.72-26.43 72.75-26.95 72.7-27.6L72.7-27.6Q75.55-27.7 76.87-26.65 78.2-25.6 78.75-23L78.75-23Q80.05-16.9 81.85-10.45L81.85-10.45Q82.3-8.9 83-7.73 83.7-6.55 84.95-5.7L84.95-5.7 85.6-6.55Q86.3-7.5 86.45-7.8L86.45-7.8Q87.2-9.25 88.45-12.25L88.45-12.25 91.35-18.5Q94.3-24.8 97.05-29.05L97.05-29.05Q99.15-32.8 102.4-34.05L102.4-34.05Q103.45-34.45 104.45-34.5L104.45-34.5Q105.55-34.55 106.59-34.05L106.59-34.05Q107.25-33.75 107.62-33.23 108-32.7 108-32.05L108-32.05Q108-31.2 107.3-30.5L107.3-30.5Q106.5-29.7 106-29.45L106-29.45Q104.65-28.8 103.72-27.78 102.8-26.75 102.1-25.7 101.4-24.65 101.15-24.3L101.15-24.3Q99.2-21.55 97.87-18.57 96.55-15.6 94.75-11L94.75-11 93.85-8.7Q92.95-6.4 92.1-4.7 91.25-3 90.15-1.45L90.15-1.45Q89.15-0.25 87.9-0.15L87.9-0.15Q87.35-0.1 86.6-0.4L86.6-0.4Q80.05-3 77.55-8.75L77.55-8.75Q76.7-10.7 76.05-13.03 75.4-15.35 75.25-15.8L75.25-15.8Q74.65-17.9 74.45-18.55L74.45-18.55Q74.4-18.75 74.35-19.13 74.3-19.5 74.15-19.65L74.15-19.65Z" opacity="1" transform="matrix(1,0,0,1,0,0)" fill="#ff5858" class="undefined-text-0" data-fill-palette-color="primary" id="text-0"></path></svg></g></svg></g><g transform="matrix(1,0,0,1,0,81.09784785064626)"><svg viewBox="0 0 192 30.940017905102955" height="30.940017905102955" width="192"><g transform="matrix(1,0,0,1,0,0)"><svg width="192" viewBox="3.3499999046325684 -33.75 279.2200012207031 45" height="30.940017905102955" data-palette-color="#ff5858"><path d="M8.7-31.7Q8.7-30.4 8.65-28.68 8.6-26.95 8.55-26.05L8.55-26.05Q8.4-23.5 8.4-20.95L8.4-20.95Q8.4-19.05 8.55-17L8.55-17Q10.1-19.25 11.9-20.3 13.7-21.35 16.25-21.35L16.25-21.35Q18.1-21.35 19.7-19.7 21.3-18.05 21.75-15.85L21.75-15.85Q21.9-13.9 21.9-11.1L21.9-11.1Q21.9-9.3 22.1-6.4L22.1-6.4Q22.2-5.3 22.68-4.35 23.15-3.4 24.05-3.4L24.05-3.4Q24.5-3.4 24.78-3.45 25.05-3.5 25.3-3.5L25.3-3.5Q26-3.5 26.28-3.15 26.55-2.8 26.55-2.15L26.55-2.15Q26.55-0.95 25.35-0.35 24.15 0.25 23.15 0.25L23.15 0.25Q19.55 0.25 18.2-2.75L18.2-2.75Q17.45-4.45 17.25-7.18 17.05-9.9 17.05-13.55L17.05-13.55Q17.05-17.15 14.6-17.15L14.6-17.15Q13.25-17.15 11.88-15.73 10.5-14.3 9.6-11.98 8.7-9.65 8.7-7.15L8.7-7.15 8.75-1.95Q8.75-0.85 7.9-0.33 7.05 0.2 6.3 0.2L6.3 0.2Q5.2 0.2 4.3-0.48 3.4-1.15 3.4-2L3.4-2Q3.75-5.75 3.75-14.55L3.75-14.55Q3.75-16.15 3.5-26.4L3.5-26.4 3.35-31Q3.35-32.1 4.35-32.93 5.35-33.75 6.6-33.75L6.6-33.75Q7.7-33.75 8.2-33.25 8.7-32.75 8.7-31.7L8.7-31.7ZM52.3-2.4Q52.3-1.3 51.12-0.55 49.95 0.2 48.95 0.2L48.95 0.2Q47.05 0.2 45.92-0.28 44.8-0.75 43.85-2.05L43.85-2.05Q42.55-0.9 40.3-0.33 38.05 0.25 36.15 0.25L36.15 0.25Q33.05 0.25 31.05-1.43 29.05-3.1 29.05-6.35L29.05-6.35Q29.05-7.75 29.8-8.93 30.55-10.1 31.85-11L31.85-11Q33.3-11.95 35.15-12.48 37-13 39-13L39-13Q40.05-13 41.5-12.6 42.95-12.2 43.75-11.75L43.75-11.75 43.75-12.55Q43.75-15.25 42.45-16.28 41.15-17.3 38.25-17.3L38.25-17.3Q37.4-17.3 36.57-16.95 35.75-16.6 34.7-16L34.7-16Q33.3-15.25 32.05-15.25L32.05-15.25Q31.6-15.25 31.2-15.88 30.8-16.5 30.8-17L30.8-17Q30.8-18.45 32.17-19.5 33.55-20.55 35.45-21.08 37.35-21.6 38.85-21.6L38.85-21.6Q40.35-21.6 42.3-21.03 44.25-20.45 45.5-19.45L45.5-19.45Q47-18.15 47.82-16.43 48.65-14.7 48.65-12.65L48.65-12.65Q48.65-12 48.55-10.7L48.55-10.7Q48.45-9.3 48.45-8.3L48.45-8.3Q48.45-7.85 48.35-6.95L48.35-6.95Q48.25-5.85 48.25-5.2L48.25-5.2Q48.25-4.6 48.7-4.17 49.15-3.75 49.75-3.75L49.75-3.75 51.15-3.8Q51.7-3.8 52-3.4 52.3-3 52.3-2.4L52.3-2.4ZM36.2-3.7Q38.35-3.7 39.8-4.15 41.25-4.6 43.3-5.8L43.3-5.8Q43.5-6.65 43.55-8.05L43.55-8.05Q40.8-9.35 39-9.35L39-9.35Q36.95-9.35 35.35-8.6 33.75-7.85 33.75-5.95L33.75-5.95Q33.75-5 34.55-4.35 35.35-3.7 36.2-3.7L36.2-3.7ZM78.4-3.85Q78.65-3.75 79.2-3.6 79.75-3.45 80-3.3 80.25-3.15 80.25-2.85L80.25-2.85Q80.3-1.65 79.37-0.88 78.45-0.1 77.2-0.1L77.2-0.1Q75.25-0.1 74.15-1.15 73.05-2.2 72.55-4.35L72.55-4.35Q72.35-5.2 72.35-6.7L72.35-6.7Q72.35-7.55 72.45-9.45L72.45-9.45Q72.55-11.45 72.55-12.65L72.55-12.65Q72.55-14.4 71.57-15.73 70.6-17.05 68.85-17.05L68.85-17.05Q67.8-17.05 66.65-16.43 65.5-15.8 65.05-14.9L65.05-14.9Q64.3-13.45 64-11.75L64-11.75Q63.45-8.75 63.45-5.5L63.45-5.5Q63.45-3.95 63.5-3.1L63.5-3.1Q63.5-2.9 63.52-2.33 63.55-1.75 63.42-1.28 63.3-0.8 63-0.4L63-0.4Q62.75-0.15 62.22 0.03 61.7 0.2 61.25 0.2L61.25 0.2Q60.55 0.2 59.5-0.4 58.45-1 58.3-1.75L58.3-1.75 58.25-2.6Q58.25-3.05 58.35-3.65L58.35-3.65Q58.95-7.15 58.95-9.75L58.95-9.75Q58.95-10.9 58.9-11.55L58.9-11.55 58.85-13.9Q58.85-15.1 58.25-16.23 57.65-17.35 56.85-17.35L56.85-17.35Q56.6-17.35 56.15-17.18 55.7-17 55.4-17L55.4-17Q54.9-17 54.32-17.5 53.75-18 53.75-18.55L53.75-18.55Q53.75-19.6 54.45-20.25L54.45-20.25Q55.2-20.85 55.92-21.2 56.65-21.55 57.6-21.55L57.6-21.55Q58.4-21.55 58.9-21.4 59.4-21.25 60.25-20.75L60.25-20.75Q60.7-20.5 61.3-19.65 61.9-18.8 62.3-17.25L62.3-17.25Q63.6-19.65 65.52-20.63 67.45-21.6 70.45-21.6L70.45-21.6Q71.6-21.6 72.92-20.85 74.25-20.1 75.2-19.1L75.2-19.1Q76.1-18 76.7-16.38 77.3-14.75 77.3-13.45L77.3-13.45Q77.3-12.7 77.2-11L77.2-11Q77.05-9.65 77.05-8.15L77.05-8.15Q77.05-4.65 78.4-3.85L78.4-3.85ZM103.79-31.3Q103.79-30.8 103.54-28.55L103.54-28.55Q102.99-23.05 102.99-17.4L102.99-17.4Q102.99-12.45 103.14-9.85 103.29-7.25 103.89-5.88 104.49-4.5 105.74-4.5L105.74-4.5Q108.14-4.5 108.14-2.9L108.14-2.9Q108.14-1.85 107.09-1.13 106.04-0.4 104.79-0.4L104.79-0.4Q103.29-0.4 101.99-1.1 100.69-1.8 99.94-3.25L99.94-3.25Q98.89-1.7 96.92-0.78 94.94 0.15 93.09 0.15L93.09 0.15Q90.24 0.15 88.04-1.05 85.84-2.25 84.64-4.33 83.44-6.4 83.44-8.9L83.44-8.9Q83.44-11.3 84.02-13.53 84.59-15.75 85.59-17.2L85.59-17.2Q86.94-19.1 89.22-20.23 91.49-21.35 93.69-21.35L93.69-21.35Q95.04-21.35 96.24-20.83 97.44-20.3 98.34-19.55L98.34-19.55Q98.34-22.9 98.29-23.75L98.29-23.75 98.29-24.8Q98.29-29.45 98.89-31.6L98.89-31.6Q99.44-33.7 101.54-33.7L101.54-33.7Q102.69-33.7 103.24-33.2 103.79-32.7 103.79-31.3L103.79-31.3ZM88.39-9Q88.39-6.7 89.72-5.3 91.04-3.9 92.89-3.9L92.89-3.9Q95.54-3.9 96.82-5.55 98.09-7.2 98.09-9.8L98.09-9.8 98.04-14.75Q96.09-16.9 93.99-16.9L93.99-16.9Q92.54-16.9 91.27-16.18 89.99-15.45 89.24-14L89.24-14Q88.39-12.35 88.39-9L88.39-9ZM125.24-32.1Q126.99-31.95 128.29-31.18 129.59-30.4 129.59-28.85L129.59-28.85Q129.59-27.7 128.51-27.03 127.44-26.35 125.94-26.35L125.94-26.35Q124.49-26.35 123.94-27.1 123.39-27.85 123.39-28.65L123.39-28.65Q123.39-30.15 123.71-31.15 124.04-32.15 125.24-32.1L125.24-32.1ZM129.24-18.95L129.24-9.95 129.24-8.5Q129.24-6.55 129.36-4.83 129.49-3.1 129.69-1.35L129.69-1.35Q129.64-0.85 128.94-0.33 128.24 0.2 127.69 0.2L127.69 0.2Q126.74 0.2 125.76-0.18 124.79-0.55 124.59-1.1L124.59-1.1Q124.29-2.7 124.29-3.95L124.29-3.95Q124.29-8.05 124.04-13.15L124.04-13.15Q123.84-17.65 123.84-19.45L123.84-19.45Q123.84-20.35 124.74-21 125.64-21.65 126.64-21.65L126.64-21.65Q128.09-21.65 128.66-21 129.24-20.35 129.24-18.95L129.24-18.95ZM158.29-3.85Q158.54-3.75 159.09-3.6 159.64-3.45 159.89-3.3 160.14-3.15 160.14-2.85L160.14-2.85Q160.19-1.65 159.26-0.88 158.34-0.1 157.09-0.1L157.09-0.1Q155.14-0.1 154.04-1.15 152.94-2.2 152.44-4.35L152.44-4.35Q152.24-5.2 152.24-6.7L152.24-6.7Q152.24-7.55 152.34-9.45L152.34-9.45Q152.44-11.45 152.44-12.65L152.44-12.65Q152.44-14.4 151.46-15.73 150.49-17.05 148.74-17.05L148.74-17.05Q147.69-17.05 146.54-16.43 145.39-15.8 144.94-14.9L144.94-14.9Q144.19-13.45 143.89-11.75L143.89-11.75Q143.34-8.75 143.34-5.5L143.34-5.5Q143.34-3.95 143.39-3.1L143.39-3.1Q143.39-2.9 143.41-2.33 143.44-1.75 143.31-1.28 143.19-0.8 142.89-0.4L142.89-0.4Q142.64-0.15 142.11 0.03 141.59 0.2 141.14 0.2L141.14 0.2Q140.44 0.2 139.39-0.4 138.34-1 138.19-1.75L138.19-1.75 138.14-2.6Q138.14-3.05 138.24-3.65L138.24-3.65Q138.84-7.15 138.84-9.75L138.84-9.75Q138.84-10.9 138.79-11.55L138.79-11.55 138.74-13.9Q138.74-15.1 138.14-16.23 137.54-17.35 136.74-17.35L136.74-17.35Q136.49-17.35 136.04-17.18 135.59-17 135.29-17L135.29-17Q134.79-17 134.21-17.5 133.64-18 133.64-18.55L133.64-18.55Q133.64-19.6 134.34-20.25L134.34-20.25Q135.09-20.85 135.81-21.2 136.54-21.55 137.49-21.55L137.49-21.55Q138.29-21.55 138.79-21.4 139.29-21.25 140.14-20.75L140.14-20.75Q140.59-20.5 141.19-19.65 141.79-18.8 142.19-17.25L142.19-17.25Q143.49-19.65 145.41-20.63 147.34-21.6 150.34-21.6L150.34-21.6Q151.49-21.6 152.81-20.85 154.14-20.1 155.09-19.1L155.09-19.1Q155.99-18 156.59-16.38 157.19-14.75 157.19-13.45L157.19-13.45Q157.19-12.7 157.09-11L157.09-11Q156.94-9.65 156.94-8.15L156.94-8.15Q156.94-4.65 158.29-3.85L158.29-3.85ZM193.03-0.1Q194.38 0.85 194.86 2 195.33 3.15 195.33 5.2L195.33 5.2Q195.33 6.2 194.76 7.2 194.18 8.2 193.58 8.65L193.58 8.65Q188.83 11.25 184.08 11.25L184.08 11.25Q181.73 11.25 180.03 10.65 178.33 10.05 176.83 9.05L176.83 9.05Q175.83 8.3 175.21 6.98 174.58 5.65 174.58 4.35L174.58 4.35Q174.58 2.55 175.71 1.2 176.83-0.15 178.73-0.75L178.73-0.75Q178.38-1.5 178.38-2.5L178.38-2.5Q178.38-3.45 179.78-5.35L179.78-5.35Q177.38-6.15 176.01-8.2 174.63-10.25 174.63-13L174.63-13Q174.63-14.7 175.43-16.03 176.23-17.35 177.83-19.1L177.83-19.1Q178.93-20.3 180.63-20.85 182.33-21.4 184.88-21.4L184.88-21.4Q186.68-21.4 189.33-20.6L189.33-20.6Q192.48-22.8 194.88-22.8L194.88-22.8Q195.48-22.8 196.26-22.5 197.03-22.2 197.43-21.9L197.43-21.9Q197.73-21.35 197.73-20.05L197.73-20.05Q197.73-19.55 197.31-19.07 196.88-18.6 196.23-18.6L196.23-18.6 195.03-18.65Q194.13-18.75 193.63-18.75L193.63-18.75Q193.08-18.75 191.98-18.65L191.98-18.65Q193.03-17.4 193.61-16 194.18-14.6 194.18-12.35L194.18-12.35Q194.18-10.65 192.93-8.8 191.68-6.95 189.98-5.9L189.98-5.9Q187.38-4.5 183.93-4.45L183.93-4.45Q183.53-4.05 183.26-3.73 182.98-3.4 182.98-3.2L182.98-3.2Q182.98-2.65 183.93-2.35 184.88-2.05 186.83-1.9L186.83-1.9Q188.33-1.8 190.16-1.28 191.98-0.75 193.03-0.1L193.03-0.1ZM184.23-8.55Q186.53-8.55 187.93-9.8 189.33-11.05 189.33-13.35L189.33-13.35Q189.33-15.1 188.08-16.2 186.83-17.3 184.88-17.3L184.88-17.3Q183.63-17.3 182.21-16.88 180.78-16.45 180.18-15.55L180.18-15.55Q179.88-15.15 179.58-14.03 179.28-12.9 179.28-12.3L179.28-12.3Q179.28-11.45 180.01-10.58 180.73-9.7 181.91-9.13 183.08-8.55 184.23-8.55L184.23-8.55ZM187.38 2.3Q184.63 2.05 183.51 1.83 182.38 1.6 181.68 1.3L181.68 1.3Q179.13 2.65 179.13 4.25L179.13 4.25Q179.13 5.75 180.68 6.53 182.23 7.3 184.23 7.3L184.23 7.3Q185.13 7.3 186.68 7.1 188.23 6.9 189.28 6.4L189.28 6.4Q189.98 6.05 190.33 5.73 190.68 5.4 190.68 4.55L190.68 4.55Q190.68 3.5 189.58 2.95 188.48 2.4 187.38 2.3L187.38 2.3ZM206.23-7.75Q206.23-5.85 206.8-4.83 207.38-3.8 208.28-3.8L208.28-3.8Q208.78-3.8 209.23-3.88 209.68-3.95 210.13-3.95L210.13-3.95Q210.63-3.95 211-3.45 211.38-2.95 211.38-2.35L211.38-2.35Q211.38-1.15 210.25-0.48 209.13 0.2 207.23 0.2L207.23 0.2Q205.88 0.2 204.5-0.63 203.13-1.45 202.23-3.23 201.33-5 201.33-7.65L201.33-7.65Q201.33-13.35 201.53-17.3L201.53-17.3Q201.78-22 201.78-29.15L201.78-29.15Q201.78-31.4 202.03-32.3L202.03-32.3Q202.33-33 203-33.38 203.68-33.75 204.43-33.75L204.43-33.75Q205.18-33.75 205.75-33.5 206.33-33.25 206.53-32.7L206.53-32.7Q206.73-32.1 206.8-31.53 206.88-30.95 206.88-29.9L206.88-29.9Q206.88-27.85 206.73-25.95L206.73-25.95Q206.63-23.65 206.63-22.6L206.63-22.6Q206.23-13.8 206.23-7.75L206.23-7.75ZM234.58-16.05Q234.98-15.35 235.23-14.03 235.48-12.7 235.48-11.65L235.48-11.65Q235.48-9.7 234.63-6.1L234.63-6.1Q231.18 0.2 224.43 0.2L224.43 0.2Q221.93 0.2 219.33-1.45 216.73-3.1 215.73-5.25L215.73-5.25Q214.38-9.55 214.38-10.7L214.38-10.7Q214.38-12.7 215.25-14.95 216.13-17.2 217.48-18.85L217.48-18.85Q218.33-20 220.53-20.83 222.73-21.65 224.53-21.65L224.53-21.65Q228.03-21.65 230.48-20.33 232.93-19 234.58-16.05L234.58-16.05ZM230.23-8Q230.48-8.65 230.48-11.35L230.48-11.35Q230.48-12.8 229.95-14.2 229.43-15.6 228.43-16.6L228.43-16.6Q228.33-16.7 227.88-16.93 227.43-17.15 226.65-17.38 225.88-17.6 224.88-17.6L224.88-17.6Q222.08-17.6 220.78-15.35 219.48-13.1 219.48-10.25L219.48-10.25Q219.48-9.75 219.75-8.35 220.03-6.95 220.23-6.6L220.23-6.6Q220.38-6.25 221-5.63 221.63-5 222.55-4.53 223.48-4.05 224.48-4.05L224.48-4.05Q226.73-4.05 228.08-5.13 229.43-6.2 230.23-8L230.23-8ZM251.97-12.85Q252.12-13.25 253.05-15.75 253.97-18.25 254.77-19.55L254.77-19.55Q256.07-21.6 257.07-21.6L257.07-21.6Q258.47-21.6 259.22-21.08 259.97-20.55 259.97-19.6L259.97-19.6Q259.97-19.15 259.6-18.35 259.22-17.55 259.17-17.4L259.17-17.4Q257.17-13 255.57-7.95L255.57-7.95 254.52-4.05Q253.92-2.15 252.47-0.98 251.02 0.2 249.07 0.2L249.07 0.2Q247.32 0.2 245.82-1.4L245.82-1.4Q244.92-2.8 243.95-4.95 242.97-7.1 242.27-9.15L242.27-9.15 240.52-14.4Q239.97-15.95 239.65-17.05 239.32-18.15 239.32-19.05L239.32-19.05Q239.27-20.1 239.92-20.75 240.57-21.4 241.72-21.4L241.72-21.4Q243.02-21.4 243.57-20.88 244.12-20.35 244.57-19.25L244.57-19.25Q244.77-18.1 245.67-14.55L245.67-14.55 246.02-13.15Q246.47-11.45 247.17-9.7 247.87-7.95 248.57-6.35L248.57-6.35Q248.47-6.6 249.27-4.7L249.27-4.7Q249.77-6.15 250.42-8.25L250.42-8.25 251.97-12.85ZM263.12-10.6Q263.12-12.5 263.82-14.43 264.52-16.35 265.67-17.95L265.67-17.95Q266.82-19.55 269.32-20.58 271.82-21.6 273.77-21.6L273.77-21.6Q275.77-21.6 277.85-21.05 279.92-20.5 280.72-19.35L280.72-19.35Q282.57-16.75 282.57-14.25L282.57-14.25Q282.57-12.9 282-11.95 281.42-11 280.37-9.9L280.37-9.9Q279.52-9 277.7-8.7 275.87-8.4 274.07-8.4L274.07-8.4Q272.92-8.4 271.27-8.63 269.62-8.85 268.07-9.2L268.07-9.2Q268.17-8.2 268.57-7.25 268.97-6.3 269.52-5.8L269.52-5.8Q270.52-4.85 271.6-4.6 272.67-4.35 274.37-4.35L274.37-4.35Q276.17-4.35 277.72-4.95L277.72-4.95Q278.97-5.4 279.77-5.4L279.77-5.4Q280.72-5.4 281.22-4.83 281.72-4.25 281.72-3.35L281.72-3.35Q281.72-2.1 280.27-1.3 278.82-0.5 276.95-0.13 275.07 0.25 273.92 0.25L273.92 0.25Q271.57 0.25 269.37-0.6 267.17-1.45 265.72-3L265.72-3Q264.52-4.4 263.82-6.38 263.12-8.35 263.12-10.6L263.12-10.6ZM274.02-17.35Q272.92-17.35 271.82-16.93 270.72-16.5 270.02-15.75L270.02-15.75Q269.12-14.8 268.8-14.23 268.47-13.65 268.37-12.65L268.37-12.65Q269.62-12.25 273.57-12.25L273.57-12.25Q275.72-12.25 276.9-12.9 278.07-13.55 278.07-14.6L278.07-14.6Q278.07-15.65 276.77-16.5 275.47-17.35 274.02-17.35L274.02-17.35Z" opacity="1" transform="matrix(1,0,0,1,0,0)" fill="#ff5858" class="undefined-text-1" data-fill-palette-color="secondary" id="text-1"></path></svg></g></svg></g></svg></g></svg></g><g transform="matrix(1,0,0,1,66.336,0)"><svg viewBox="0 0 59.328 69.14800673985049" height="69.14800673985049" width="59.328"><g><svg xmlns="http://www.w3.org/2000/svg" xmlns:xlink="http://www.w3.org/1999/xlink" version="1.1" x="0" y="0" viewBox="11.347623825073242 4.948997497558594 77.30536651611328 90.10099792480469" enable-background="new 0 0 100 100" xml:space="preserve" height="69.14800673985049" width="59.328" class="icon-icon-0" data-fill-palette-color="accent" id="icon-0"><path d="M20.9 32.164c0.122 0.664 0.669 1.12 1.33 1.255 0.22 0.045 0.421 0.123 0.598 0.239 0.736 0.481 1.268 4.94 1.474 5.943 1.474 7.198 2.702 12.616 5.151 15.682 0.182 0.227 0.43 0.494 0.726 0.787 1.424 1.41 3.752-0.18 2.942-2.014l-0.268-0.606c-1.4-3.2-3.6-19.3-3.6-23.9 0.3-13.2 3-21.892 27.2-21.892 24.1 0 29.375 8 29.375 21.5 0 15.234-1.709 27.956-4.93 35.042-0.177 0.389-0.11 0.839 0.181 1.152l0.531 0.573c0.522 0.563 1.447 0.396 1.746-0.311 4.666-11.015 5.297-28.011 5.297-35.965 0-18.7-7.7-24.7-31.9-24.7-19.986 0-28.878 4.059-31.684 15.904-0.302 1.277-0.556 3.521-0.735 5.461-0.149 1.623-1.144 2.993-2.552 3.695-0.692 0.345-1.077 1.098-0.937 1.858L20.9 32.164zM19.319 32.956c-0.175-1.06-1.394-1.606-2.282-1.001-1.244 0.848-2.425 1.974-3.385 3.395-2 3-3.8 8.4-0.4 16.9 6 15.7 13.2 21.5 18.7 24.2 0.3 5.4 1.1 12.3 3.2 14.4 3 3 9 4.2 20.9 4.2 15.9 0 19.5-2.2 20.9-4.7l0.2-0.4c1.8-4.5 2.6-14.1 2.7-15.2l0.137-1.598c0.048-0.557 0.17-1.104 0.343-1.635 0.321-0.983-0.129-2.048-1.077-2.465v0c-0.683-0.3-1.482-0.202-2.053 0.278-1.456 1.224-3.167 2.202-5.061 2.983-1.132 0.467-1.861 1.876-1.641 3.08l0.103 0.566c0.224 1.225 1.208 2.11 2.366 2.274 0.569 0.081 0.984 0.568 0.913 1.138-0.216 1.749-0.46 7.422-0.847 8.996-0.311 1.265-1.295 2.241-2.554 2.574-2.106 0.557-6.228 1.156-14.246 1.156-6.306 0-13.798-0.786-16.725-1.492-2.083-0.502-3.686-2.151-4.084-4.257-0.18-0.953-0.531-4.618-0.664-6.18-0.084-0.995 0.827-1.795 1.798-1.563 0.052 0.012 10.391 1.044 15.791 1.444 1.8 0.2 3.6 0.2 5.4 0.2 2.45 0 4.762-0.151 6.89-0.387 0.867-0.096 1.554-0.772 1.654-1.638l0.206-1.781c0.142-1.226-0.923-2.242-2.142-2.045-9.034 1.457-19.565 0.634-26.784 0.634-3.6 0-14.973-6.94-22.25-25.625-1.5-7.75-0.445-8.912 0-11.25 0.229-1.206 1.678-2.707 3.304-3.703C19.145 34.141 19.417 33.55 19.319 32.956L19.319 32.956z" fill="#ff5858" data-fill-palette-color="accent"></path></svg></g></svg></g><g></g></svg></g></svg></g></svg></g></svg></g><defs></defs></svg><rect width="320" height="360" fill="none" stroke="none" visibility="hidden"></rect></g></svg></g></svg>